<svg width="32" height="28" xmlns="http://www.w3.org/2000/svg"><path d="M20.767 20.44a.81.81 0 00.49-.183l2.58-2.174c.316-.266.316-.681 0-.955l-2.58-2.183a.81.81 0 00-.49-.183c-.415 0-.673.258-.673.673v1.245h-1.162c-.739 0-1.195-.233-1.718-.847l-1.527-1.801 1.527-1.81c.54-.63.946-.847 1.677-.847h1.203v1.279c0 .407.258.664.673.664a.801.801 0 00.49-.174l2.58-2.175c.316-.266.316-.69 0-.955l-2.58-2.183a.761.761 0 00-.49-.183c-.415 0-.673.258-.673.665v1.386h-1.212c-1.228 0-1.992.34-2.863 1.386l-1.412 1.668-1.469-1.751c-.805-.946-1.569-1.303-2.747-1.303H8.896c-.53 0-.896.348-.896.838s.365.838.896.838h1.437c.697 0 1.162.225 1.685.847l1.519 1.801-1.52 1.81c-.53.623-.954.847-1.643.847H8.896c-.53 0-.896.348-.896.838s.365.838.896.838h1.536c1.179 0 1.901-.356 2.706-1.303l1.478-1.751 1.444 1.718c.822.98 1.627 1.336 2.822 1.336h1.212v1.412c0 .415.258.672.673.672z"/></svg>