<svg width="32" height="28" xmlns="http://www.w3.org/2000/svg"><path d="M22.752 12.313c.473 0 .747-.257.747-.771V8.503c0-.54-.357-.904-.888-.904-.44 0-.698.14-1.038.398l-.838.656c-.2.15-.266.299-.266.473 0 .257.19.465.498.465.133 0 .24-.042.349-.125l.614-.514h.058v2.59c0 .514.274.771.764.771zm-13.207 1.96a.84.84 0 00.863-.856v-.448c0-1.004.706-1.677 1.785-1.677h3.403v1.362c0 .407.258.664.673.664a.745.745 0 00.49-.183l2.581-2.166c.316-.266.316-.69 0-.955L16.76 7.831a.745.745 0 00-.49-.183c-.415 0-.673.258-.673.665v1.294h-3.278c-2.217 0-3.628 1.254-3.628 3.213v.597c0 .49.374.855.855.855zm4.864 5.951c.407 0 .664-.257.664-.664v-1.303h4.881c2.225 0 3.628-1.254 3.628-3.213v-.597a.838.838 0 00-.855-.855.833.833 0 00-.855.855v.448c0 1.004-.714 1.677-1.793 1.677h-5.006v-1.353c0-.407-.257-.664-.664-.664a.767.767 0 00-.498.182l-2.573 2.175c-.324.257-.315.68 0 .946l2.573 2.192a.807.807 0 00.498.174z" fill="#000" fill-rule="nonzero"/></svg>