<svg width="32" height="28" xmlns="http://www.w3.org/2000/svg"><path d="M9.545 14.272a.856.856 0 00.863-.855v-.448c0-1.004.706-1.677 1.785-1.677h5.005v1.362c0 .407.258.664.673.664a.745.745 0 00.49-.183l2.581-2.166c.316-.266.316-.69 0-.955l-2.581-2.183a.745.745 0 00-.49-.183c-.415 0-.672.258-.672.665v1.294h-4.881c-2.217 0-3.628 1.254-3.628 3.213v.597c0 .474.382.855.855.855zm4.864 5.952c.407 0 .664-.257.664-.664v-1.303h4.881c2.225 0 3.628-1.254 3.628-3.213v-.597a.854.854 0 10-1.71 0v.448c0 1.004-.714 1.677-1.793 1.677h-5.006v-1.353c0-.407-.257-.664-.664-.664a.767.767 0 00-.498.182l-2.573 2.175c-.324.257-.315.68 0 .946l2.573 2.192a.807.807 0 00.498.174z" fill="#000" fill-rule="nonzero"/></svg>